# xmcd CD database file
#
# Track frame offsets:
#	150
#	20630
#	41525
#	57563
#	73247
#	102394
#	115645
#	127505
#	140366
#	155705
#	166871
#	185174
#	196843
#	210995
#	224579
#	239877
#	251642
#	265663
#	280681
#	297098
#	309863
#	327097
#
# Disc length: 4544 seconds
#
# Revision: 0
# Processed by: cddbd v1.5PL3 Copyright (c) Steve Scherf et al.
# Submitted via: CDex 1.40Release
#
DISCID=4911be16
DTITLE=John Lee Hooker - The Best Of
DYEAR=1900
DGENRE=Blues
TTITLE0=I'm in the mood
TTITLE1=Boogie chillun
TTITLE2=It serves me right to suffer
TTITLE3=This is hip
TTITLE4=House rent boogie
TTITLE5=I'm so excited
TTITLE6=I love you honey
TTITLE7=Hobo blues
TTITLE8=Crawlin' kingsnake
TTITLE9=Maudie
TTITLE10=Dimples
TTITLE11=Boom boom
TTITLE12=Louise
TTITLE13=Ground hog blues
TTITLE14=Ramblin' by myself
TTITLE15=Walkin' the boogie
TTITLE16=One bourbon,one scotch,one beer
TTITLE17=Sugar mama
TTITLE18=Peace lovin' man
TTITLE19=Leave my wife alone
TTITLE20=Blues before sunrise
TTITLE21=Time is marching
EXTD=ID3G: 0
EXTT0=
EXTT1=
EXTT2=
EXTT3=
EXTT4=
EXTT5=
EXTT6=
EXTT7=
EXTT8=
EXTT9=
EXTT10=
EXTT11=
EXTT12=
EXTT13=
EXTT14=
EXTT15=
EXTT16=
EXTT17=
EXTT18=
EXTT19=
EXTT20=
EXTT21=
PLAYORDER=
